<?xml version="1.0" standalone="no"?>
<!DOCTYPE svg PUBLIC "-//W3C//DTD SVG 20010904//EN"
 "http://www.w3.org/TR/2001/REC-SVG-20010904/DTD/svg10.dtd">
<svg version="1.0" xmlns="http://www.w3.org/2000/svg"
 width="885.000000pt" height="885.000000pt" viewBox="0 0 885.000000 885.000000"
 preserveAspectRatio="xMidYMid meet">
<metadata>
Created by potrace 1.11, written by Peter Selinger 2001-2013
</metadata>
<g transform="translate(0.000000,885.000000) scale(0.100000,-0.100000)"
fill="#000000" stroke="none">
<path d="M3714 8443 c-8 -2 -7 -29 2 -91 17 -113 18 -112 -7 -112 -18 0 -20
-5 -17 -42 3 -40 1 -43 -25 -46 -24 -3 -27 -8 -27 -38 0 -24 -5 -34 -15 -34
-20 0 -20 0 15 -184 17 -87 30 -164 30 -171 0 -8 -21 -15 -55 -20 -30 -3 -57
-10 -59 -13 -6 -11 35 -186 45 -190 4 -2 6 -9 3 -16 -4 -9 45 -250 81 -404 3
-14 2 -21 -4 -18 -5 3 -12 24 -16 46 -4 22 -11 40 -16 40 -5 0 -6 -12 -3 -27
5 -20 3 -25 -4 -18 -6 6 -36 96 -67 200 -93 315 -96 325 -110 325 -7 0 -21 3
-31 7 -11 4 -15 3 -11 -4 8 -13 -25 -12 -34 1 -4 5 -20 4 -38 -2 -26 -9 -32
-8 -41 6 -8 15 -10 15 -11 -3 -3 -36 -4 -40 -12 -52 -4 -7 -1 -39 8 -72 23
-90 22 -93 -27 -89 l-42 3 -25 71 c-32 87 -84 165 -156 233 -55 52 -97 71
-124 54 -38 -23 -51 -136 -31 -260 6 -38 38 -125 85 -229 41 -92 73 -169 71
-172 -2 -2 -14 6 -26 18 -22 22 -22 22 -15 1 8 -27 -6 -27 -23 -1 -7 11 -21
20 -32 20 -10 0 -25 10 -31 23 -7 12 -22 31 -34 43 -12 11 -27 29 -34 40 -12
19 -12 19 -6 -1 4 -11 9 -38 12 -59 2 -22 9 -48 14 -59 7 -13 7 -23 -2 -33 -9
-11 -9 -20 0 -41 15 -32 7 -41 -17 -19 -18 16 -19 15 -12 -26 4 -25 41 -104
87 -188 44 -80 88 -160 97 -178 l16 -32 -41 -26 c-23 -14 -45 -22 -49 -17 -4
4 -135 221 -290 481 l-283 472 -25 -16 c-24 -16 -26 -15 -38 1 -7 9 -17 14
-23 11 -6 -4 -18 5 -27 19 -9 14 -19 23 -22 21 -3 -3 1 -12 8 -20 14 -18 20
-77 9 -91 -4 -6 68 -125 173 -285 99 -151 183 -281 185 -287 3 -7 -2 -13 -11
-13 -10 0 -86 105 -197 273 -100 149 -183 274 -185 276 -2 2 -20 -4 -40 -15
-33 -18 -36 -18 -45 -2 -5 9 -16 15 -24 12 -8 -3 -21 5 -31 21 -9 14 -19 24
-21 21 -3 -2 3 -15 11 -29 9 -13 14 -31 11 -40 -4 -8 -2 -18 4 -22 6 -3 11
-13 11 -21 0 -8 24 -47 53 -87 29 -40 57 -78 61 -85 5 -9 -8 -30 -38 -62 -25
-27 -51 -61 -58 -75 -14 -32 -23 -32 -49 4 -12 16 -27 27 -34 25 -7 -3 -20 5
-29 17 -8 13 -18 21 -20 18 -3 -3 18 -33 46 -67 48 -59 50 -65 41 -96 -10 -33
-9 -35 144 -210 85 -98 152 -180 149 -183 -3 -3 -12 -1 -19 5 -9 8 -17 8 -23
2 -6 -6 -38 22 -89 80 -44 50 -85 90 -93 90 -7 0 -25 -12 -39 -27 -15 -16 -23
-21 -19 -13 4 8 -1 6 -11 -5 -10 -11 -31 -33 -46 -49 l-28 -28 123 -125 123
-125 -57 28 c-54 26 -58 27 -76 11 -24 -22 -35 -21 -57 3 -10 12 -25 18 -32
16 -12 -5 -67 42 -381 327 -83 75 -159 137 -169 137 -10 1 -34 14 -53 30 -51
44 -60 36 -9 -9 l43 -38 -42 -50 c-23 -28 -42 -53 -42 -56 0 -4 52 -49 115
-102 63 -52 115 -100 115 -105 0 -5 -4 -12 -10 -15 -23 -14 -5 -35 85 -106 87
-68 117 -100 80 -85 -8 3 -22 9 -30 12 -23 9 -32 -26 -11 -42 17 -12 17 -14 1
-38 -10 -14 -21 -26 -25 -26 -4 0 -26 14 -49 31 -24 17 -45 28 -48 26 -2 -3
16 -20 41 -39 25 -18 45 -38 46 -44 0 -11 77 -75 176 -148 46 -33 51 -40 39
-53 -8 -7 -22 -27 -32 -44 -11 -18 -24 -28 -33 -26 -8 2 -171 106 -363 230
-303 198 -350 225 -366 215 -15 -9 -23 -9 -36 2 -15 13 -20 11 -39 -12 l-21
-27 -34 21 c-31 20 -35 20 -46 5 -7 -9 -16 -17 -20 -17 -4 0 -41 20 -82 45
-78 47 -93 53 -93 33 0 -7 36 -33 80 -58 74 -42 79 -47 74 -72 -4 -23 0 -29
26 -43 23 -12 30 -21 25 -33 -17 -41 -16 -48 10 -60 20 -9 24 -16 16 -30 -8
-15 11 -28 140 -97 82 -43 154 -82 160 -86 7 -4 2 -23 -15 -57 -14 -28 -26
-54 -26 -57 0 -4 39 -24 88 -46 48 -22 94 -44 102 -49 8 -4 100 -50 203 -101
103 -52 184 -95 178 -97 -5 -2 -28 6 -50 18 -42 21 -57 15 -20 -8 55 -35 -8
-14 -227 74 -131 53 -251 102 -266 109 -25 12 -27 11 -39 -17 -7 -17 -12 -36
-12 -43 0 -7 -6 -11 -12 -9 -7 3 -18 -9 -25 -25 -14 -35 -18 -36 -66 -16 -19
8 -32 10 -29 5 3 -5 21 -14 40 -20 21 -7 38 -21 46 -39 9 -20 30 -36 76 -56
35 -15 63 -32 63 -37 0 -5 -9 -23 -20 -38 l-20 -29 -73 26 c-59 21 -92 25
-187 27 -212 2 -272 -54 -167 -156 87 -84 167 -123 366 -174 165 -43 182 -49
158 -59 -24 -10 -25 -12 -9 -23 15 -11 13 -12 -11 -9 -16 3 -34 -2 -42 -9 -7
-8 -29 -14 -47 -13 -62 1 -123 -4 -103 -9 11 -2 32 -13 46 -23 14 -9 37 -21
51 -24 14 -4 28 -15 31 -26 3 -12 17 -22 36 -25 30 -6 31 -8 16 -25 -16 -16
-15 -18 7 -31 13 -7 113 -29 223 -49 l200 -35 -3 -40 c-5 -64 2 -62 -149 -43
-302 39 -910 119 -940 124 -31 6 -33 4 -33 -25 0 -25 -4 -30 -25 -30 -14 0
-25 -4 -25 -10 0 -5 -17 -11 -37 -12 l-38 -1 33 -4 c18 -3 36 -11 39 -19 3 -8
14 -14 24 -14 10 0 19 -6 19 -14 0 -18 14 -20 370 -52 278 -24 337 -34 296
-50 -14 -5 -469 26 -623 43 l-53 6 0 -42 c0 -37 -2 -41 -25 -41 -14 0 -25 -4
-25 -10 0 -5 -15 -11 -32 -11 l-33 -2 30 -4 c16 -3 34 -11 40 -19 11 -15 125
-33 213 -34 50 0 52 -1 52 -27 0 -24 15 -85 37 -155 4 -15 -1 -18 -36 -18 -24
0 -40 -4 -36 -9 3 -6 -14 -12 -37 -14 -24 -2 -4 -4 44 -5 84 -2 87 -3 108 -33
18 -24 28 -29 49 -25 36 7 450 16 429 10 -10 -3 -18 -14 -18 -25 0 -17 -8 -19
-72 -20 -40 -1 -98 -4 -128 -7 l-55 -7 1 -50 c2 -80 8 -130 17 -136 4 -3 74 3
155 12 193 23 197 23 130 -8 -54 -24 -58 -28 -58 -59 0 -29 -4 -34 -23 -34
-13 0 -33 -8 -44 -17 -15 -13 -108 -32 -354 -72 -217 -35 -338 -58 -345 -67
-6 -8 -32 -18 -58 -23 -26 -5 -50 -11 -53 -15 -8 -8 12 -7 64 3 47 9 45 11 58
-81 4 -27 10 -48 14 -48 4 0 69 14 144 30 162 35 167 36 167 11 0 -11 4 -22 9
-25 5 -4 56 5 113 19 113 27 138 30 138 15 0 -5 -8 -10 -18 -10 -25 0 -31 -7
-25 -29 3 -13 11 -17 28 -14 25 5 29 1 39 -39 6 -25 4 -27 -49 -39 -30 -7 -55
-16 -55 -22 0 -5 6 -7 14 -4 40 16 98 27 106 22 10 -6 79 8 224 46 39 10 72
16 75 14 2 -3 -1 -5 -6 -5 -7 0 -6 -18 5 -50 9 -27 12 -53 8 -57 -3 -4 -185
-66 -404 -138 -360 -119 -397 -134 -395 -152 2 -15 -6 -24 -27 -32 -27 -9 -29
-12 -20 -36 13 -35 15 -32 -25 -45 -30 -10 -35 -16 -33 -38 3 -24 -3 -28 -82
-58 -47 -18 -88 -34 -92 -36 -4 -2 -4 -8 0 -14 5 -8 34 -1 97 23 l89 34 17
-22 c13 -18 19 -20 37 -10 32 17 48 13 60 -14 10 -22 15 -24 38 -15 21 8 29 7
38 -5 10 -13 33 -6 174 55 89 38 165 70 168 70 2 0 15 -25 29 -55 l24 -55 82
40 c46 22 88 45 93 50 6 6 15 10 22 10 7 0 61 23 120 51 234 110 274 128 274
121 0 -5 -21 -18 -46 -30 -26 -13 -44 -25 -41 -28 3 -3 15 0 27 6 12 6 24 9
27 6 6 -6 -18 -21 -286 -172 -155 -88 -206 -112 -212 -102 -5 7 -9 9 -9 4 0
-16 44 -86 54 -86 6 0 4 -5 -4 -10 -13 -8 -12 -13 4 -40 10 -17 16 -32 14 -34
-1 -1 -19 -12 -38 -24 -19 -12 -30 -22 -25 -22 6 0 20 7 33 15 12 9 38 15 59
14 26 -2 58 8 101 30 l62 31 10 -27 c6 -16 13 -34 15 -41 3 -7 -24 -31 -63
-56 -111 -71 -220 -209 -229 -290 -7 -58 14 -71 107 -63 115 10 207 53 370
177 79 60 146 107 149 104 2 -2 -6 -19 -19 -37 -19 -26 -20 -29 -3 -15 30 27
51 23 25 -5 -14 -15 -19 -30 -15 -45 3 -13 1 -22 -5 -22 -11 0 -62 -68 -62
-81 0 -14 74 13 85 31 4 6 18 9 34 5 16 -3 34 0 46 9 29 22 36 19 25 -8 -9
-24 -8 -24 23 -14 30 10 64 38 267 219 l79 71 28 -33 c15 -18 28 -38 28 -43 0
-6 -124 -130 -275 -275 -151 -146 -329 -318 -396 -383 -120 -117 -120 -117
-100 -137 19 -19 19 -21 3 -39 -11 -12 -13 -22 -7 -28 7 -7 4 -16 -10 -29 -11
-10 -20 -23 -20 -28 0 -6 10 -1 23 11 13 12 31 22 40 22 9 0 19 5 22 10 4 6
14 8 24 5 13 -4 77 57 246 235 126 132 232 240 236 240 37 0 -45 -95 -385
-447 l-60 -63 26 -27 c21 -22 25 -32 17 -46 -6 -9 -8 -21 -5 -26 3 -5 -4 -20
-15 -35 -11 -14 -16 -26 -10 -26 6 0 15 9 21 21 7 11 18 18 25 15 7 -2 19 2
25 10 7 8 19 14 26 14 8 0 14 3 14 8 1 4 31 40 69 81 l67 74 39 -26 c22 -15
61 -34 87 -43 27 -8 48 -18 48 -20 0 -3 -12 -21 -26 -40 -16 -20 -21 -34 -14
-34 10 0 9 -5 -2 -17 -22 -27 -30 -43 -21 -43 5 0 31 30 57 66 46 62 50 65 81
60 33 -7 33 -6 172 184 76 104 140 190 143 190 3 0 6 -15 6 -33 1 -24 -14 -54
-62 -123 -57 -82 -82 -136 -54 -119 6 3 13 -1 16 -9 3 -9 10 -14 14 -11 4 3
11 -2 14 -11 3 -8 10 -13 15 -10 5 3 12 -1 15 -10 4 -9 9 -14 12 -11 3 3 15
-4 26 -15 27 -27 32 -21 130 138 45 73 83 132 85 131 1 -2 -5 -30 -13 -62 -9
-35 -12 -61 -6 -63 5 -1 17 -8 27 -15 16 -12 16 -15 -4 -47 -14 -23 -17 -36
-9 -41 7 -4 -53 -119 -162 -313 -104 -186 -170 -313 -166 -322 3 -9 -6 -35
-20 -60 -14 -24 -22 -44 -16 -44 5 0 15 12 21 28 7 15 18 35 26 45 13 18 15
17 57 -5 82 -44 71 -51 148 102 69 138 70 139 95 128 14 -6 27 -9 29 -7 3 3
27 53 55 112 28 59 55 107 61 107 13 0 13 -6 0 -30 -8 -15 -6 -21 8 -29 16 -8
21 -6 31 15 11 24 12 24 42 9 33 -18 33 -22 5 -87 -9 -21 -12 -38 -7 -38 4 0
16 20 25 45 10 25 23 48 30 52 13 8 106 195 120 241 4 12 11 22 15 22 18 0
101 -41 101 -50 0 -5 -65 -186 -145 -402 -123 -334 -142 -395 -130 -404 10 -8
13 -21 9 -41 -5 -27 -3 -31 21 -37 27 -7 29 -18 9 -71 -5 -11 0 -18 15 -22 27
-7 27 -12 -9 -117 -25 -75 -27 -87 -13 -84 12 2 26 31 44 88 25 77 30 85 52
83 20 -1 26 5 36 38 10 35 15 39 34 33 37 -11 40 -10 47 16 4 17 13 24 27 23
18 -2 24 12 52 120 65 244 59 230 95 222 17 -3 45 -9 61 -12 l30 -5 18 79 c9
43 17 88 17 101 0 12 5 30 10 40 6 9 31 104 55 211 25 107 47 197 50 199 8 9
6 -31 -4 -65 -6 -20 -6 -35 0 -38 5 -4 9 3 9 14 0 11 5 23 10 26 14 9 14 6
-30 -265 -22 -135 -40 -255 -40 -267 0 -12 -6 -24 -12 -26 -7 -2 0 -3 15 -1
18 2 26 0 21 -7 -4 -8 3 -9 25 -4 25 5 31 3 31 -9 0 -10 12 -19 30 -23 26 -5
30 -10 31 -42 2 -33 2 -34 6 -6 3 16 16 39 29 52 16 15 29 43 38 88 8 36 16
68 18 70 2 3 20 -1 39 -6 l35 -11 0 -127 c-1 -104 3 -138 21 -197 56 -178 130
-189 204 -29 47 104 57 159 65 353 5 151 9 181 20 171 7 -6 17 -8 22 -5 5 3
12 -8 16 -24 3 -17 12 -30 19 -30 10 0 17 -17 21 -49 9 -65 30 -84 45 -40 6
18 11 45 11 60 0 18 5 29 14 29 15 0 26 21 26 52 0 17 2 19 16 7 35 -29 41 47
24 311 -4 74 -7 136 -6 137 1 1 24 5 51 8 l50 7 48 -539 c26 -296 50 -547 52
-559 4 -17 10 -20 35 -16 25 4 30 1 30 -17 0 -12 6 -21 15 -21 10 0 15 -10 15
-29 0 -17 5 -33 11 -36 7 -5 8 5 4 29 -5 24 -3 36 4 36 6 0 11 11 11 25 0 15
6 25 15 25 10 0 13 8 10 28 -8 40 -85 624 -85 639 0 25 28 13 33 -14 3 -16 24
-167 48 -336 l43 -309 38 4 c29 3 39 0 43 -13 3 -10 12 -20 20 -23 8 -3 15
-17 15 -31 0 -14 4 -25 8 -25 5 0 7 13 4 30 -2 18 0 30 7 30 12 0 7 121 -9
185 -16 65 -13 95 9 95 11 0 50 16 87 35 37 19 68 34 70 33 1 -2 6 -19 12 -38
5 -19 14 -34 19 -33 6 1 13 -12 17 -29 3 -17 9 -29 12 -25 3 3 -2 40 -12 81
l-18 76 23 24 23 24 -62 227 c-33 125 -59 230 -56 233 3 3 8 -3 12 -12 3 -9
14 -16 23 -16 13 0 23 -25 45 -105 33 -119 47 -145 67 -128 8 6 22 9 32 8 9
-2 17 0 17 4 0 4 10 7 22 8 11 1 24 6 27 11 3 5 14 8 24 6 9 -1 17 2 17 7 0 6
5 7 10 4 17 -10 12 7 -45 165 -30 84 -54 155 -52 156 2 2 19 -17 38 -42 30
-41 37 -45 65 -39 28 5 33 2 44 -25 7 -16 18 -30 25 -30 11 0 89 -181 231
-537 28 -69 55 -123 62 -123 7 0 22 -21 33 -46 24 -54 37 -53 15 1 -9 21 -16
43 -16 50 0 6 27 23 60 38 l60 25 -19 44 c-10 24 -40 87 -65 142 -26 54 -45
100 -44 101 2 1 13 8 25 14 l23 12 -56 111 c-36 72 -52 114 -46 120 7 7 12 2
17 -12 10 -31 40 -22 40 13 0 26 26 57 47 57 4 0 20 -24 34 -52 15 -29 29 -48
31 -42 2 6 -7 30 -21 54 -13 24 -22 48 -20 54 2 6 -24 69 -60 139 l-63 127 45
25 c24 14 48 25 53 25 7 0 136 -206 354 -567 87 -144 100 -161 116 -152 16 8
21 5 31 -16 13 -29 17 -30 44 -10 26 20 27 19 48 -16 15 -25 22 -29 44 -25 25
6 31 -1 76 -69 27 -41 55 -75 62 -75 20 0 19 4 -36 85 -55 82 -57 87 -35 105
13 11 13 17 -6 46 l-21 34 23 19 c22 18 22 20 7 43 -14 21 -14 28 -3 39 11 12
-4 37 -93 158 l-106 144 25 20 c13 10 35 28 48 38 l23 19 -57 75 c-32 41 -62
75 -66 75 -5 0 -9 5 -9 11 0 5 -58 84 -130 174 -71 90 -130 169 -130 176 0 7
14 -6 32 -29 33 -43 48 -50 28 -12 -6 12 -10 24 -7 26 2 2 87 -87 189 -198
114 -125 191 -202 201 -202 15 2 16 -1 6 -15 -6 -9 2 -1 19 16 17 18 37 30 45
27 7 -2 22 4 32 16 24 27 32 25 62 -10 14 -17 28 -28 31 -25 3 3 -7 18 -22 34
-17 17 -29 42 -30 59 -1 19 -17 48 -44 80 -23 28 -42 55 -42 60 0 12 44 42 61
42 7 0 40 -27 75 -60 113 -108 310 -182 358 -134 25 24 16 79 -23 158 -50 99
-92 147 -233 266 -73 61 -134 116 -136 120 -2 5 7 6 19 3 19 -5 21 -3 17 15
-6 20 -5 20 18 5 14 -9 34 -13 48 -9 14 3 28 1 31 -5 7 -11 52 -32 71 -34 6 0
19 -7 29 -15 10 -8 1 9 -20 38 -21 30 -44 56 -52 59 -8 3 -11 14 -7 28 4 17 0
27 -15 37 -12 7 -21 16 -21 20 0 12 38 10 45 -2 3 -5 10 -10 15 -10 5 0 -2 11
-15 25 -14 13 -25 29 -25 34 0 6 -76 65 -170 132 -93 66 -170 125 -170 131 0
8 23 47 46 77 2 2 213 -135 470 -304 443 -293 467 -308 481 -289 17 24 79 27
110 6 13 -8 23 -10 23 -5 0 5 -12 15 -26 22 -15 6 -24 17 -21 24 3 8 -3 19
-14 25 -10 7 -16 18 -13 26 4 10 -78 64 -280 186 -178 106 -286 177 -286 187
0 8 6 13 13 10 8 -3 140 -80 295 -171 155 -91 284 -166 287 -166 2 0 11 13 19
28 13 26 20 29 58 27 24 -1 52 -5 63 -9 11 -4 8 0 -7 9 -16 8 -28 21 -28 28 0
21 -42 53 -135 102 -49 27 -91 49 -93 51 -2 1 3 15 11 31 9 16 18 47 22 68 16
98 15 96 37 84 11 -6 34 -12 52 -14 17 -2 42 -7 56 -11 43 -12 10 12 -60 42
-73 32 -80 38 -80 74 0 24 -16 33 -219 120 -121 52 -217 98 -215 102 3 5 10 6
15 2 5 -3 16 0 24 6 12 10 37 3 126 -35 95 -39 114 -44 126 -33 7 8 15 23 17
34 2 11 11 36 19 56 9 20 13 39 9 42 -3 3 0 6 5 6 6 0 10 7 9 17 -2 11 -50 33
-167 74 l-164 58 71 0 c68 1 72 2 78 26 7 28 13 30 52 15 20 -8 29 -8 35 1 5
8 104 -17 345 -88 222 -66 343 -97 351 -91 7 6 30 4 62 -6 28 -8 51 -11 51 -6
0 4 -22 13 -50 20 -56 13 -57 17 -36 97 8 29 13 53 13 54 -1 1 -69 17 -152 38
l-149 36 -1 30 c0 29 0 30 -114 55 -65 14 -116 31 -119 38 -3 9 3 11 21 7 18
-5 26 -2 31 11 7 18 -8 34 -31 34 -14 0 -16 13 -6 48 6 25 18 25 102 5 15 -4
22 -2 17 5 -3 5 -28 13 -55 17 -27 4 -52 12 -54 20 -3 7 -31 16 -64 20 -32 4
-62 10 -68 15 -5 4 -50 14 -100 21 -49 7 -82 15 -73 17 18 3 22 13 33 74 5 34
8 37 33 33 15 -3 191 -26 392 -50 201 -25 380 -48 398 -51 28 -5 34 -3 39 14
4 17 11 20 33 16 24 -5 28 -2 33 25 6 28 10 31 47 31 34 0 40 3 40 21 0 21 2
21 106 14 87 -6 106 -5 102 6 -3 8 -13 15 -24 16 -10 1 -54 5 -96 8 -74 6 -78
8 -78 31 0 21 -4 24 -40 24 -39 0 -40 1 -40 35 0 32 -2 35 -30 35 -23 0 -30 5
-30 19 0 16 -11 19 -92 25 -50 3 -131 6 -180 6 l-88 0 0 66 0 66 -107 -2
c-280 -4 -543 1 -543 10 0 6 24 11 53 11 28 1 40 4 25 6 -53 8 -28 20 55 26
45 4 171 12 280 19 122 7 197 16 198 22 1 6 0 26 -1 44 -1 17 3 32 9 32 5 0
11 17 13 38 3 36 4 37 48 42 l45 6 -59 5 c-33 3 -62 11 -64 17 -2 8 -32 12
-83 12 l-80 0 7 38 c4 20 8 40 10 43 2 4 39 10 81 14 135 12 343 127 343 190
0 41 -61 77 -161 94 -96 16 -174 14 -285 -10 -222 -46 -236 -48 -223 -32 9 10
9 17 1 25 -9 9 -5 15 18 24 17 7 30 20 30 28 0 9 12 19 28 22 15 4 42 17 60
29 31 21 31 23 12 28 -12 3 -43 4 -68 2 -28 -2 -49 1 -54 8 -4 6 -23 10 -43 9
-40 -3 -40 13 -1 27 17 7 13 9 -23 13 -32 3 -95 -11 -243 -53 l-199 -56 -11
26 c-5 14 -10 37 -11 49 -2 23 23 32 523 196 l525 172 -3 31 c-2 20 2 32 13
36 8 4 15 13 15 21 0 9 11 18 25 22 14 3 25 10 25 15 0 5 -10 5 -23 0 -24 -9
-75 -4 -93 10 -6 5 -139 -40 -315 -106 -167 -63 -310 -115 -316 -115 -7 0 -13
6 -13 13 0 7 129 62 310 132 200 76 310 124 310 132 0 8 -5 24 -11 35 -10 18
-8 24 7 35 11 8 18 19 16 24 -1 6 11 16 28 22 16 6 30 15 30 20 0 4 -8 4 -17
-1 -10 -5 -40 -10 -68 -10 -35 -1 -79 -13 -144 -42 -52 -22 -96 -40 -98 -40
-1 0 -10 15 -19 33 -9 17 -36 52 -60 77 l-44 46 35 18 c19 11 35 24 35 31 0 6
12 17 26 24 15 6 24 14 21 17 -3 3 -37 -11 -77 -31 -68 -34 -73 -35 -96 -21
-13 9 -27 16 -32 16 -4 0 -100 -49 -212 -110 -112 -60 -207 -107 -209 -104 -3
3 1 9 8 14 8 4 11 15 8 23 -4 12 22 31 104 77 60 33 109 64 109 68 0 4 -9 22
-20 40 -11 17 -16 32 -12 32 4 0 -1 5 -11 11 -9 6 -15 14 -12 20 4 5 1 9 -5 9
-6 0 -8 5 -5 10 3 6 -1 13 -9 16 -9 3 -13 10 -10 15 14 24 -30 1 -158 -81 -77
-49 -142 -90 -144 -90 -3 0 14 22 37 50 41 48 41 50 25 74 -16 25 -15 26 14
48 16 12 30 29 30 37 1 9 123 101 285 215 177 123 285 205 285 215 0 9 18 27
40 41 22 14 40 28 40 33 0 10 -13 3 -57 -29 -17 -13 -34 -24 -37 -24 -4 0 -26
29 -77 103 -3 5 -62 -34 -130 -87 -123 -95 -123 -95 -144 -76 -20 19 -21 19
-120 -60 -55 -44 -102 -75 -104 -69 -1 6 5 16 15 24 15 11 16 15 5 29 -11 13
-15 14 -35 1 -21 -14 -24 -13 -44 14 l-21 29 40 31 c21 18 39 37 39 42 0 6
-20 -6 -44 -26 -24 -19 -48 -34 -53 -33 -9 3 -22 -7 -172 -134 -41 -34 -72
-57 -68 -52 3 6 -10 30 -30 54 l-37 42 85 82 c46 45 185 179 309 299 171 165
222 219 213 228 -9 9 -7 18 8 37 19 25 19 25 0 46 -19 21 -19 21 4 51 22 27
23 31 8 47 -14 16 -11 23 56 92 51 52 69 76 60 82 -9 5 -36 -17 -81 -66 -64
-68 -70 -72 -87 -56 -16 15 -19 14 -46 -14 l-29 -30 -24 22 -23 23 -19 -25
c-15 -20 -21 -22 -33 -11 -13 10 -33 -8 -133 -123 -65 -75 -121 -136 -125
-136 -4 0 -26 16 -49 35 -23 19 -43 35 -45 35 -8 0 -125 -149 -125 -159 0 -6
-4 -11 -8 -11 -5 0 -68 -74 -142 -165 -73 -91 -135 -163 -138 -161 -3 3 7 21
22 40 31 41 34 56 6 31 -27 -25 -35 -14 -12 16 21 27 269 379 295 420 16 25
16 27 0 40 -15 12 -16 12 -9 -1 4 -8 0 -6 -9 5 -9 11 -21 19 -26 17 -6 -1 -8
6 -5 16 5 13 -1 22 -19 32 -30 16 -31 23 -4 66 11 19 18 34 16 34 -3 0 -15
-16 -27 -36 -12 -19 -25 -33 -28 -30 -3 3 -11 1 -19 -6 -7 -6 -16 -8 -20 -5
-3 4 -26 -20 -50 -53 -25 -33 -48 -60 -52 -60 -4 0 -19 13 -34 28 l-27 28 39
62 c52 79 82 176 88 283 5 79 4 88 -16 108 -38 38 -99 12 -207 -91 -69 -65
-81 -84 -161 -242 -61 -119 -88 -164 -91 -149 -2 12 2 32 8 45 9 18 7 18 -10
-4 -27 -35 -43 -36 -28 -2 9 18 9 30 1 43 -6 9 -7 24 -3 32 14 27 19 78 9 85
-11 7 -39 -19 -58 -54 -6 -12 -21 -22 -32 -22 -11 0 -24 -11 -31 -25 -11 -25
-28 -34 -28 -15 0 16 -26 12 -42 -7 -8 -10 -50 -101 -92 -203 -43 -101 -79
-186 -80 -188 -2 -1 -24 6 -49 17 l-46 20 13 33 c8 18 96 253 196 522 186 499
188 505 141 506 -9 0 -12 8 -9 25 3 14 1 25 -4 25 -6 0 -8 16 -4 38 5 34 4 35
-5 10 -6 -16 -17 -28 -25 -28 -8 0 -14 -7 -14 -15 0 -9 -10 -19 -23 -24 -19
-8 -37 -54 -125 -325 -57 -174 -107 -316 -112 -316 -5 0 -11 4 -14 8 -3 5 40
150 94 323 55 173 100 317 100 321 0 3 -16 12 -35 18 -30 10 -34 15 -29 36 4
15 2 24 -5 24 -8 0 -10 13 -7 38 l6 37 -12 -32 c-6 -18 -17 -33 -24 -33 -8 0
-14 -6 -14 -14 0 -7 -6 -19 -14 -25 -8 -7 -17 -24 -21 -39 -3 -15 -15 -61 -26
-103 l-21 -77 -36 9 c-20 5 -64 6 -98 3 l-61 -6 2 76 c0 42 -2 76 -5 76 -4 0
-13 -33 -20 -72 -17 -95 -17 -96 -50 -103 -16 -4 -31 -14 -34 -23 -2 -9 -21
-111 -42 -227 -20 -115 -41 -214 -45 -219 -6 -6 -9 -3 -9 7 0 9 -6 20 -13 24
-11 7 -11 27 5 118 10 61 17 116 15 124 -2 15 -30 23 -84 24 -18 1 -33 4 -33
7 0 3 -15 6 -34 7 -41 2 -39 8 -57 -177 -13 -140 -23 -173 -33 -114 -12 65
-15 71 -46 78 -27 5 -30 9 -30 46 0 22 -5 40 -11 40 -7 0 -9 16 -5 48 3 26 13
181 22 344 14 244 15 302 5 322 -9 15 -11 38 -6 65 4 26 3 41 -4 41 -5 0 -11
-23 -13 -52 l-3 -52 -67 3 -68 2 0 -99 c0 -54 -3 -127 -6 -161 -6 -56 -9 -61
-30 -61 -24 0 -24 0 -24 -125 0 -70 -4 -125 -9 -125 -5 0 -11 10 -13 23 -2 14
-11 23 -25 25 -19 3 -23 -1 -23 -22 0 -23 -4 -26 -35 -26 l-35 0 0 55 c0 34
-4 55 -11 55 -8 0 -9 -17 -5 -54 5 -36 3 -56 -4 -61 -8 -5 -10 -58 -7 -173 2
-92 2 -156 -1 -143 -3 22 -7 23 -58 18 l-53 -5 -5 31 c-7 42 -76 776 -76 805
0 15 -6 22 -20 22 -15 0 -22 9 -27 31 -5 28 -9 30 -34 25 -29 -6 -39 6 -39 50
0 19 -5 24 -24 24 -27 0 -31 11 -42 110 -7 72 -14 89 -30 83z m376 -1257 c0
-9 -8 -12 -27 -8 -25 5 -25 6 -8 13 29 11 35 10 35 -5z m1120 -22 c0 -21 -90
-297 -101 -308 -25 -27 -18 20 27 164 29 95 54 160 62 160 6 0 12 -7 12 -16z
m-535 -278 c424 -67 820 -235 1173 -497 133 -100 389 -357 494 -499 319 -429
489 -907 514 -1445 14 -307 -44 -680 -151 -972 -52 -141 -183 -401 -263 -523
-356 -543 -904 -934 -1527 -1089 -224 -56 -314 -66 -610 -66 -222 0 -304 4
-395 18 -1176 185 -2060 1127 -2170 2312 -90 969 400 1926 1242 2426 309 184
617 289 999 343 143 21 541 15 694 -8z m-1918 -198 c58 -90 89 -146 83 -152
-12 -12 0 -27 -109 137 -81 122 -98 157 -73 157 4 0 48 -64 99 -142z m3643
108 c0 -3 -4 -8 -10 -11 -5 -3 -10 -1 -10 4 0 6 5 11 10 11 6 0 10 -2 10 -4z
m-10 -518 c0 -4 -4 -8 -10 -8 -5 0 -10 5 -10 12 0 6 -8 21 -17 32 -13 15 -10
14 10 -3 15 -14 27 -28 27 -33z m-4430 -328 c0 -5 -7 -10 -15 -10 -8 0 -15 -4
-15 -10 0 -5 -5 -10 -10 -10 -6 0 -5 8 2 20 13 21 38 27 38 10z m5112 -561
c-8 -7 -304 -119 -315 -119 -4 0 -7 6 -7 13 0 18 313 137 322 123 4 -6 4 -14
0 -17z m-5558 -784 c87 -8 161 -17 164 -20 20 -19 -29 -22 -168 -10 -85 8
-161 15 -167 15 -7 0 -13 7 -13 15 0 18 -11 18 184 0z m5602 -693 c-4 -3 -12
0 -18 6 -9 9 -9 12 0 12 7 0 13 10 13 23 2 17 3 15 6 -6 3 -16 2 -31 -1 -35z
m-5531 -417 c0 -14 -3 -25 -6 -25 -4 0 -9 11 -11 25 -3 15 -1 25 6 25 6 0 11
-11 11 -25z m5132 -565 c97 -56 140 -86 136 -96 -3 -8 -8 -12 -12 -10 -10 5
-286 169 -290 172 -6 5 10 24 17 21 4 -2 71 -41 149 -87z m-4227 -491 c0 -6
-50 -64 -112 -130 -100 -107 -138 -137 -138 -109 0 12 229 250 241 250 5 0 9
-5 9 -11z m3246 -555 c-10 -7 -23 -11 -27 -8 -17 10 -9 19 18 21 26 1 26 0 9
-13z m-1061 -166 c25 -146 43 -304 35 -312 -5 -5 -13 -7 -16 -3 -8 8 -52 329
-47 340 9 17 22 5 28 -25z m-1394 -29 c12 -7 11 -9 -1 -9 -24 0 -43 17 -35 30
6 10 9 10 15 0 4 -7 14 -16 21 -21z"/>
<path d="M3287 7679 c4 -13 8 -18 11 -10 2 7 -1 18 -6 23 -8 8 -9 4 -5 -13z"/>
<path d="M7318 4983 c7 -3 16 -2 19 1 4 3 -2 6 -13 5 -11 0 -14 -3 -6 -6z"/>
</g>
</svg>
